<?xml version="1.0" encoding="utf-8" standalone="no"?>
<!DOCTYPE svg PUBLIC "-//W3C//DTD SVG 1.1//EN"
  "http://www.w3.org/Graphics/SVG/1.1/DTD/svg11.dtd">
<!-- Created with matplotlib (https://matplotlib.org/) -->
<svg height="153.6pt" version="1.1" viewBox="0 0 264 153.6" width="264pt" xmlns="http://www.w3.org/2000/svg" xmlns:xlink="http://www.w3.org/1999/xlink">
 <defs>
  <style type="text/css">
*{stroke-linecap:butt;stroke-linejoin:round;}
  </style>
 </defs>
 <g id="figure_1">
  <g id="axes_1">
   <g id="patch_1">
    <path clip-path="url(#pb24a424510)" d="M 164.020409 12.312068 
C 148.784299 4.746831 131.349322 2.820621 114.829211 6.877443 
C 98.309099 10.934265 83.749553 20.717327 73.750776 34.479462 
L 5.807179 127.995801 
L 25.223587 142.102647 
L 61.623318 92.002716 
C 64.491343 105.279428 71.058682 117.47742 80.563183 127.181086 
L 94.974006 107.346289 
C 85.885283 96.329599 82.171788 81.812144 84.854273 67.784436 
C 87.536758 53.756727 96.344648 41.633707 108.856858 34.747711 
C 121.369068 27.861716 136.323522 26.90732 149.609586 32.146865 
z
"/>
   </g>
   <g id="patch_2">
    <path clip-path="url(#pb24a424510)" d="M 99.979591 141.287932 
C 115.215701 148.853169 132.650678 150.779379 149.170789 146.722557 
C 165.690901 142.665735 180.250447 132.882673 190.249224 119.120538 
L 258.192821 25.604199 
L 238.776413 11.497353 
L 202.376682 61.597284 
C 199.508657 48.320572 192.941318 36.12258 183.436817 26.418914 
L 169.025994 46.253711 
C 178.114717 57.270401 181.828212 71.787856 179.145727 85.815564 
C 176.463242 99.843273 167.655352 111.966293 155.143142 118.852289 
C 142.630932 125.738284 127.676478 126.69268 114.390414 121.453135 
z
"/>
   </g>
   <g id="text_1">
    <!-- FCFC -->
    <defs>
     <path d="M 7.421875 71.578125 
L 62.109375 71.578125 
L 62.109375 56.203125 
L 29.640625 56.203125 
L 29.640625 43.703125 
L 57.375 43.703125 
L 57.375 29.25 
L 29.640625 29.25 
L 29.640625 0 
L 7.421875 0 
z
" id="Arial-Black-70"/>
     <path d="M 54.984375 29.25 
L 74.359375 23.390625 
Q 72.40625 15.234375 68.203125 9.765625 
Q 64.015625 4.296875 57.78125 1.515625 
Q 51.5625 -1.265625 41.9375 -1.265625 
Q 30.28125 -1.265625 22.875 2.125 
Q 15.484375 5.515625 10.109375 14.0625 
Q 4.734375 22.609375 4.734375 35.9375 
Q 4.734375 53.71875 14.1875 63.25 
Q 23.640625 72.796875 40.921875 72.796875 
Q 54.4375 72.796875 62.171875 67.328125 
Q 69.921875 61.859375 73.6875 50.53125 
L 54.15625 46.1875 
Q 53.125 49.46875 52 50.984375 
Q 50.140625 53.515625 47.453125 54.875 
Q 44.78125 56.25 41.453125 56.25 
Q 33.9375 56.25 29.9375 50.203125 
Q 26.90625 45.703125 26.90625 36.078125 
Q 26.90625 24.171875 30.515625 19.75 
Q 34.125 15.328125 40.671875 15.328125 
Q 47.015625 15.328125 50.265625 18.890625 
Q 53.515625 22.46875 54.984375 29.25 
z
" id="Arial-Black-67"/>
    </defs>
    <g style="fill:#ffffff;" transform="translate(40.125845 81.52936)rotate(-234)scale(0.2 -0.2)">
     <use xlink:href="#Arial-Black-70"/>
     <use x="66.699219" xlink:href="#Arial-Black-67"/>
     <use x="144.482422" xlink:href="#Arial-Black-70"/>
     <use x="211.181641" xlink:href="#Arial-Black-67"/>
    </g>
   </g>
   <g id="text_2">
    <!-- FCFC -->
    <g style="fill:#ffffff;" transform="translate(223.874155 72.07064)rotate(-54)scale(0.2 -0.2)">
     <use xlink:href="#Arial-Black-70"/>
     <use x="66.699219" xlink:href="#Arial-Black-67"/>
     <use x="144.482422" xlink:href="#Arial-Black-70"/>
     <use x="211.181641" xlink:href="#Arial-Black-67"/>
    </g>
   </g>
  </g>
 </g>
 <defs>
  <clipPath id="pb24a424510">
   <rect height="153.6" width="264" x="0" y="0"/>
  </clipPath>
 </defs>
</svg>
